<?xml version="1.0" standalone="no"?>
<!DOCTYPE svg PUBLIC "-//W3C//DTD SVG 20010904//EN"
 "http://www.w3.org/TR/2001/REC-SVG-20010904/DTD/svg10.dtd">
<svg version="1.0" xmlns="http://www.w3.org/2000/svg"
 width="1000.000000pt" height="1000.000000pt" viewBox="0 0 1000.000000 1000.000000"
 preserveAspectRatio="xMidYMid meet">
<metadata>
Created by potrace 1.14, written by Peter Selinger 2001-2017
</metadata>
<g transform="translate(0.000000,1000.000000) scale(0.100000,-0.100000)"
fill="#000000" stroke="none">
<path d="M5000 9375 l0 -625 -67 0 c-38 0 -129 -5 -203 -10 -1326 -101 -2493
-882 -3084 -2065 -389 -780 -495 -1668 -299 -2515 29 -127 117 -426 128 -438
2 -2 200 68 440 155 339 123 435 161 431 173 -2 8 -16 53 -31 100 -117 371
-157 777 -115 1163 11 103 41 273 65 367 3 11 7 28 9 38 17 65 70 229 78 240
6 6 7 12 3 12 -4 0 -3 6 2 13 6 6 16 30 23 52 17 55 99 226 146 306 l39 66
240 -140 c132 -76 268 -154 302 -173 l61 -35 65 98 c97 146 155 215 296 354
184 180 411 336 611 419 41 17 89 37 105 44 57 25 230 75 330 95 173 35 487
53 620 36 17 -2 53 -6 80 -10 28 -3 93 -15 145 -26 52 -11 105 -22 118 -25 99
-21 314 -105 447 -174 194 -102 351 -221 526 -399 180 -184 337 -412 419 -611
17 -41 35 -84 41 -95 42 -89 111 -370 124 -506 l7 -76 -203 -17 c-112 -9 -229
-20 -260 -23 l-56 -6 -1 -139 c-1 -179 -23 -321 -74 -478 -38 -119 -106 -271
-131 -297 -9 -9 -51 11 -177 84 -91 52 -166 96 -168 98 -1 1 13 33 31 71 79
161 121 340 122 519 0 72 -12 212 -19 223 -2 4 -7 24 -10 46 -16 102 -98 292
-175 405 -63 92 -212 243 -299 302 -80 54 -210 123 -253 134 -25 6 -27 2 -73
-127 -27 -73 -49 -134 -51 -136 -1 -1 -37 7 -81 19 -102 27 -282 33 -381 14
-347 -67 -617 -319 -705 -655 -31 -121 -32 -321 0 -438 24 -89 80 -222 93
-222 6 0 123 64 137 76 2 1 -5 19 -16 41 -49 95 -67 181 -66 318 1 111 4 141
26 207 39 119 92 204 182 294 90 90 175 143 294 182 67 22 94 26 212 26 118 0
145 -4 212 -26 170 -56 305 -162 405 -317 1 -2 34 15 73 38 40 22 75 41 79 41
13 0 57 -100 85 -190 49 -158 46 -369 -8 -527 -94 -278 -295 -476 -575 -571
-103 -34 -111 -35 -261 -36 -152 -1 -161 1 -295 39 -19 6 -26 -8 -69 -130 -57
-159 -44 -153 -186 -82 -413 205 -677 666 -646 1128 10 156 66 361 132 478 13
24 23 45 22 46 -17 15 -335 192 -339 189 -13 -7 -98 -193 -124 -269 -56 -165
-76 -277 -82 -470 -3 -99 -6 -181 -7 -182 -1 -1 -117 -12 -259 -24 l-257 -22
0 -26 c1 -64 61 -346 96 -450 71 -207 198 -461 271 -541 13 -14 23 -28 23 -31
0 -4 15 -25 33 -47 17 -22 48 -59 67 -83 36 -46 184 -195 235 -239 222 -187
431 -305 710 -400 115 -40 261 -75 355 -85 30 -3 82 -10 115 -15 98 -15 415
-4 530 19 225 43 313 68 460 128 159 65 348 168 405 220 14 13 28 23 31 23 4
0 25 15 47 33 22 17 59 48 83 67 45 36 193 182 241 237 49 57 153 198 188 256
19 31 37 57 40 57 3 0 138 -77 300 -170 162 -94 298 -170 301 -170 9 0 132
229 149 280 9 25 24 60 33 78 10 17 15 32 13 32 -3 0 6 25 19 55 14 30 24 56
23 58 -2 2 29 108 43 147 5 14 10 34 12 45 2 11 9 38 15 60 6 22 13 51 16 65
31 174 36 207 41 275 3 33 7 78 10 100 6 52 6 367 0 425 -3 25 -7 63 -10 85
-3 22 -8 67 -11 100 -3 33 -8 64 -11 68 -2 4 -7 24 -9 44 -4 31 -13 73 -28
133 -3 8 -9 36 -15 61 -6 26 -16 59 -22 75 -6 16 -12 36 -13 44 -1 8 -10 41
-21 72 -10 32 -17 59 -14 61 8 8 871 319 873 315 6 -7 89 -240 96 -270 5 -18
15 -58 23 -88 22 -80 68 -317 82 -425 3 -22 7 -53 10 -70 24 -171 25 -753 1
-826 -3 -8 -7 -39 -11 -69 -8 -78 -46 -299 -59 -345 -2 -5 -6 -28 -10 -50 -4
-22 -12 -51 -16 -65 -5 -14 -11 -37 -14 -52 -2 -14 -9 -36 -16 -47 -6 -12 -8
-21 -5 -21 3 0 -1 -16 -9 -35 -9 -20 -15 -39 -16 -43 0 -9 -39 -130 -50 -157
-4 -11 -16 -40 -25 -65 -10 -25 -29 -68 -42 -95 -13 -28 -25 -60 -27 -72 -12
-58 -285 -544 -351 -623 -19 -23 -35 -46 -35 -50 0 -12 -93 -130 -220 -280
-82 -96 -288 -302 -370 -370 -30 -25 -57 -48 -60 -52 -10 -13 -313 -236 -339
-250 -14 -7 -28 -15 -31 -18 -8 -8 -131 -83 -165 -100 -16 -8 -32 -17 -35 -20
-3 -3 -23 -14 -45 -25 -22 -11 -42 -22 -45 -25 -5 -5 -26 -16 -140 -70 -65
-31 -553 -212 -600 -222 -14 -4 -50 -13 -80 -21 -56 -15 -280 -60 -360 -73
-25 -3 -52 -8 -60 -9 -19 -3 -113 -13 -208 -21 -39 -3 -120 -7 -180 -9 l-107
-3 -3 -621 -2 -621 78 0 c303 0 766 59 1102 142 2242 547 3820 2555 3820 4858
0 2303 -1578 4311 -3820 4858 -336 83 -799 142 -1102 142 l-78 0 0 -625z"/>
</g>
</svg>
